<svg width="76" height="76" viewBox="0 0 76 76" fill="none" xmlns="http://www.w3.org/2000/svg">
<path opacity="0.06" d="M54.6848 0H20.9089C9.36124 0 0 9.36124 0 20.9089V54.6848C0 66.2325 9.36124 75.5938 20.9089 75.5938H54.6848C66.2325 75.5938 75.5938 66.2325 75.5938 54.6848V20.9089C75.5938 9.36124 66.2325 0 54.6848 0Z" fill="#0089FF"/>
<path d="M37.797 63.5373C52.013 63.5373 63.5374 52.013 63.5374 37.7969C63.5374 23.5809 52.013 12.0565 37.797 12.0565C23.5809 12.0565 12.0566 23.5809 12.0566 37.7969C12.0566 52.013 23.5809 63.5373 37.797 63.5373Z" fill="#1B76FF"/>
<path fill-rule="evenodd" clip-rule="evenodd" d="M24.387 32.7031H29.0328V50.8643H24.387C23.6875 50.8643 23.1204 50.3242 23.1204 49.658V33.9094C23.1204 33.2432 23.6875 32.7031 24.387 32.7031Z" stroke="white" stroke-width="1.60838" stroke-linecap="round" stroke-linejoin="round"/>
<path fill-rule="evenodd" clip-rule="evenodd" d="M51.0609 47.4641C50.7668 49.7275 49.2545 50.8642 46.566 50.8642H32.4984C30.5871 50.8642 29.0328 49.4013 29.0328 47.6025V32.7249C33.4941 32.29 35.7247 30.7326 35.7247 26.5448V24.5379C35.7247 22.4227 37.5252 20.7079 39.7462 20.7079C40.5926 20.7079 41.4173 20.9622 42.1032 21.4346C43.0483 22.087 43.6506 23.3225 43.6506 25.1017V30.9109C43.6506 31.405 44.4871 31.8103 45.3236 31.8103H49.8111C51.7015 31.8103 53.2347 33.2336 53.2767 35.0029C53.3048 36.1824 52.5661 39.8335 51.0609 47.4641Z" stroke="white" stroke-width="1.60838" stroke-linecap="round" stroke-linejoin="round"/>
</svg>
