<svg width="160" height="29" viewBox="0 0 160 29" fill="none" xmlns="http://www.w3.org/2000/svg">
<path d="M4.69563 3.69516C6.84981 1.82671 9.7749 0.736106 12.7395 0.600456C13.7542 0.600456 14.7719 0.605956 15.7865 0.597656C15.7347 1.58591 15.7865 2.57686 15.756 3.56506C15.6128 5.77401 14.7139 7.93311 13.1996 9.66591C11.2313 11.9967 8.22095 13.5606 5.0247 13.9648C3.6292 14.1696 2.21233 14.0395 0.807743 14.0755C0.832103 12.9876 0.755925 11.8971 0.850373 10.8119C1.12463 8.12136 2.52318 5.54426 4.69563 3.69516Z" fill="#81818B"/>
<path d="M16.7261 0.597656C17.8139 0.608756 18.9016 0.592157 19.9924 0.603207C22.7072 0.777557 25.3855 1.72426 27.4298 3.36581C29.6845 5.12351 31.2296 7.63695 31.6255 10.322C31.7992 11.5676 31.6895 12.8271 31.7567 14.0783C30.8059 14.0755 29.8583 14.0728 28.9075 14.0783C26.5708 14.0202 24.2734 13.3337 22.3172 12.1766C21.4153 11.5898 20.489 10.9947 19.8126 10.1808C18.3288 8.67496 17.3203 6.78436 16.9394 4.79136C16.6529 3.40726 16.7687 1.99556 16.7261 0.597656Z" fill="#81818B"/>
<path d="M0.809783 14.8699C1.77568 14.9197 2.74462 14.8283 3.70742 14.9252C7.82993 15.0055 11.8306 17.1092 13.9664 20.3119C15.1914 22.1056 15.8495 24.2317 15.7642 26.3434C15.7611 27.036 15.7733 27.725 15.752 28.4145C14.2224 28.3725 12.6776 28.486 11.1633 28.2175C7.79948 27.703 4.70686 25.884 2.8451 23.2876C1.43438 21.3998 0.730561 19.094 0.803693 16.8158C0.803693 16.1653 0.803693 15.5176 0.809783 14.8699Z" fill="#81818B"/>
<path d="M26.6084 15.1632C28.266 14.8282 29.9748 14.8835 31.6601 14.8835L31.7336 14.95C31.6968 16.3977 31.8218 17.862 31.5021 19.2931C30.8285 22.5041 28.4886 25.3717 25.3409 26.9467C23.3817 27.938 21.1331 28.425 18.8936 28.403C18.1776 28.406 17.4585 28.392 16.7425 28.411C16.7425 27.2125 16.6876 26.0087 16.8369 24.8153C17.1843 21.9283 18.9028 19.2405 21.3738 17.4247C22.9034 16.3285 24.7011 15.5341 26.6084 15.1632Z" fill="#81818B"/>
<path d="M44.2417 23.0527C44.2417 23.5401 44.0559 23.9523 43.6852 24.2898C43.334 24.6085 42.8904 24.7679 42.3544 24.7679C41.8383 24.7679 41.4052 24.6085 41.0545 24.2898C40.7038 23.9523 40.5284 23.5401 40.5284 23.0527V5.67789C40.5284 5.19054 40.7038 4.78759 41.0545 4.46899C41.4256 4.13159 41.8798 3.96289 42.4163 3.96289C42.9523 3.96289 43.3855 4.13159 43.7157 4.46899C44.0664 4.78759 44.2417 5.19054 44.2417 5.67789V23.0527Z" fill="#81818B"/>
<path d="M59.1475 9.72656C59.6836 9.72656 60.1272 9.89521 60.4784 10.2326C60.8286 10.5512 61.0039 10.9542 61.0039 11.4415V18.5827C61.0039 20.5694 60.3955 22.1438 59.1785 23.3059C57.961 24.468 56.2075 25.0488 53.917 25.0488C51.6274 25.0488 49.8734 24.468 48.6565 23.3059C47.46 22.1438 46.8615 20.5694 46.8615 18.5827V11.4415C46.8615 10.9542 47.0368 10.5512 47.3875 10.2326C47.7382 9.89521 48.1819 9.72656 48.7184 9.72656C49.255 9.72656 49.6981 9.89521 50.0488 10.2326C50.4 10.5512 50.5753 10.9542 50.5753 11.4415V18.5827C50.5753 19.726 50.8541 20.5788 51.4106 21.1411C51.9676 21.6847 52.8034 21.9564 53.917 21.9564C55.0525 21.9564 55.8978 21.6847 56.4553 21.1411C57.0118 20.5788 57.2906 19.726 57.2906 18.5827V11.4415C57.2906 10.9542 57.466 10.5512 57.8167 10.2326C58.1674 9.89521 58.611 9.72656 59.1475 9.72656Z" fill="#81818B"/>
<path d="M72.1733 9.44531C73.8239 9.44531 75.0409 9.81076 75.8252 10.5418C76.609 11.254 77.1251 12.1818 77.3724 13.3251L76.8463 13.0721L77.0941 12.6223C77.3414 12.1911 77.7231 11.732 78.2392 11.2446C78.7547 10.7386 79.3737 10.3169 80.0956 9.97946C80.8384 9.62331 81.6637 9.44531 82.5715 9.44531C84.0572 9.44531 85.1812 9.73581 85.9446 10.3168C86.7289 10.8979 87.265 11.6757 87.5537 12.6504C87.843 13.6063 87.9874 14.6746 87.9874 15.8554V23.0528C87.9874 23.5401 87.812 23.9523 87.4608 24.2898C87.1101 24.6086 86.667 24.7679 86.1304 24.7679C85.5944 24.7679 85.1503 24.6086 84.7996 24.2898C84.4489 23.9523 84.2735 23.5401 84.2735 23.0528V15.8554C84.2735 15.2369 84.1911 14.684 84.0262 14.1966C83.8609 13.6906 83.5616 13.2876 83.1285 12.9877C82.6954 12.6878 82.0764 12.5379 81.2721 12.5379C80.4877 12.5379 79.8173 12.6878 79.2603 12.9877C78.7027 13.2876 78.2801 13.6906 77.9914 14.1966C77.7231 14.684 77.5887 15.2369 77.5887 15.8554V23.0528C77.5887 23.5401 77.4133 23.9523 77.0632 24.2898C76.7125 24.6086 76.2683 24.7679 75.7323 24.7679C75.1957 24.7679 74.7521 24.6086 74.4019 24.2898C74.0507 23.9523 73.8754 23.5401 73.8754 23.0528V15.8554C73.8754 15.2369 73.7929 14.684 73.6276 14.1966C73.4627 13.6906 73.1635 13.2876 72.7303 12.9877C72.2972 12.6878 71.6777 12.5379 70.8734 12.5379C70.0896 12.5379 69.4192 12.6878 68.8616 12.9877C68.3051 13.2876 67.882 13.6906 67.5932 14.1966C67.3249 14.684 67.1911 15.2369 67.1911 15.8554V23.0528C67.1911 23.5401 67.0157 23.9523 66.665 24.2898C66.3138 24.6086 65.8707 24.7679 65.3341 24.7679C64.7976 24.7679 64.3545 24.6086 64.0033 24.2898C63.6526 23.9523 63.4772 23.5401 63.4772 23.0528V11.4414C63.4772 10.9541 63.6526 10.5511 64.0033 10.2325C64.3545 9.89511 64.7976 9.72646 65.3341 9.72646C65.8707 9.72646 66.3138 9.89511 66.665 10.2325C67.0157 10.5511 67.1911 10.9541 67.1911 11.4414V12.6504L66.7264 12.566C66.9123 12.2474 67.1706 11.91 67.5003 11.5539C67.8305 11.179 68.2327 10.8323 68.7073 10.5136C69.1819 10.195 69.7079 9.94196 70.2854 9.75451C70.8634 9.54836 71.4929 9.44531 72.1733 9.44531Z" fill="#81818B"/>
<path d="M93.9561 23.0528C93.9561 23.5401 93.7807 23.9523 93.4295 24.2898C93.0793 24.6086 92.6357 24.7679 92.0991 24.7679C91.5631 24.7679 91.119 24.6086 90.7683 24.2898C90.4181 23.9523 90.2427 23.5401 90.2427 23.0528V11.4414C90.2427 10.9541 90.4181 10.5511 90.7683 10.2325C91.119 9.89515 91.5631 9.7265 92.0991 9.7265C92.6357 9.7265 93.0793 9.89515 93.4295 10.2325C93.7807 10.5511 93.9561 10.9541 93.9561 11.4414V23.0528ZM92.0682 7.89899C91.3668 7.89899 90.8717 7.79594 90.5824 7.58975C90.2942 7.38359 90.1498 7.01809 90.1498 6.49329V5.9591C90.1498 5.4156 90.3047 5.05004 90.6134 4.86264C90.9436 4.65644 91.4392 4.55334 92.0991 4.55334C92.8215 4.55334 93.3271 4.65644 93.6153 4.86264C93.9046 5.06879 94.049 5.4343 94.049 5.9591V6.49329C94.049 7.03684 93.8941 7.41169 93.5844 7.61784C93.2757 7.80529 92.7696 7.89899 92.0682 7.89899Z" fill="#81818B"/>
<path d="M105.076 9.44531C106.603 9.44531 107.758 9.73581 108.542 10.3168C109.347 10.8979 109.893 11.6757 110.182 12.6504C110.492 13.6063 110.646 14.6746 110.646 15.8554V23.0528C110.646 23.5401 110.471 23.9523 110.12 24.2898C109.77 24.6086 109.326 24.7679 108.789 24.7679C108.253 24.7679 107.81 24.6086 107.459 24.2898C107.108 23.9523 106.933 23.5401 106.933 23.0528V15.8554C106.933 15.2369 106.84 14.684 106.655 14.1966C106.489 13.6906 106.18 13.2876 105.726 12.9877C105.272 12.6878 104.622 12.5379 103.776 12.5379C102.951 12.5379 102.25 12.6878 101.672 12.9877C101.115 13.2876 100.682 13.6906 100.372 14.1966C100.083 14.684 99.9385 15.2369 99.9385 15.8554V23.0528C99.9385 23.5401 99.7636 23.9523 99.4129 24.2898C99.0622 24.6086 98.6181 24.7679 98.0821 24.7679C97.5455 24.7679 97.1019 24.6086 96.7517 24.2898C96.4005 23.9523 96.2251 23.5401 96.2251 23.0528V11.4414C96.2251 10.9541 96.4005 10.5511 96.7517 10.2325C97.1019 9.89511 97.5455 9.72646 98.0821 9.72646C98.6181 9.72646 99.0622 9.89511 99.4129 10.2325C99.7636 10.5511 99.9385 10.9541 99.9385 11.4414V12.6504L99.4749 12.566C99.6607 12.2474 99.9285 11.91 100.279 11.5539C100.63 11.179 101.043 10.8323 101.517 10.5136C101.992 10.195 102.528 9.94196 103.126 9.75451C103.725 9.54836 104.375 9.44531 105.076 9.44531Z" fill="#81818B"/>
<path d="M129.02 17.2611C129.02 18.7981 128.638 20.157 127.875 21.3378C127.132 22.4999 126.121 23.4089 124.842 24.0648C123.583 24.7211 122.17 25.0487 120.602 25.0487C119.034 25.0487 117.61 24.7211 116.332 24.0648C115.073 23.4089 114.063 22.4999 113.299 21.3378C112.556 20.157 112.185 18.7981 112.185 17.2611C112.185 15.7242 112.556 14.3747 113.299 13.2126C114.063 12.0318 115.073 11.1134 116.332 10.4574C117.61 9.78266 119.034 9.44531 120.602 9.44531C122.17 9.44531 123.583 9.78266 124.842 10.4574C126.121 11.1134 127.132 12.0318 127.875 13.2126C128.638 14.3747 129.02 15.7242 129.02 17.2611ZM125.306 17.2611C125.306 16.3053 125.09 15.4806 124.656 14.7871C124.243 14.0748 123.676 13.5219 122.954 13.1283C122.253 12.7347 121.469 12.5379 120.602 12.5379C119.736 12.5379 118.941 12.7347 118.219 13.1283C117.518 13.5219 116.95 14.0748 116.517 14.7871C116.105 15.4806 115.898 16.3053 115.898 17.2611C115.898 18.1983 116.105 19.023 116.517 19.7353C116.95 20.4287 117.518 20.9723 118.219 21.3659C118.941 21.7595 119.736 21.9563 120.602 21.9563C121.469 21.9563 122.253 21.7595 122.954 21.3659C123.676 20.9723 124.243 20.4287 124.656 19.7353C125.09 19.023 125.306 18.1983 125.306 17.2611Z" fill="#81818B"/>
<path d="M142.861 9.72656C143.397 9.72656 143.841 9.89521 144.192 10.2326C144.542 10.5512 144.718 10.9542 144.718 11.4415V18.5827C144.718 20.5694 144.109 22.1438 142.892 23.3059C141.674 24.468 139.921 25.0488 137.631 25.0488C135.341 25.0488 133.587 24.468 132.37 23.3059C131.173 22.1438 130.575 20.5694 130.575 18.5827V11.4415C130.575 10.9542 130.75 10.5512 131.101 10.2326C131.452 9.89521 131.895 9.72656 132.432 9.72656C132.968 9.72656 133.412 9.89521 133.763 10.2326C134.113 10.5512 134.289 10.9542 134.289 11.4415V18.5827C134.289 19.726 134.567 20.5788 135.124 21.1411C135.681 21.6847 136.517 21.9564 137.631 21.9564C138.765 21.9564 139.612 21.6847 140.168 21.1411C140.726 20.5788 141.004 19.726 141.004 18.5827V11.4415C141.004 10.9542 141.18 10.5512 141.53 10.2326C141.881 9.89521 142.325 9.72656 142.861 9.72656Z" fill="#81818B"/>
<path d="M146.231 22.4343C146.025 22.1719 145.932 21.8345 145.953 21.4221C145.974 21.0098 146.242 20.6537 146.758 20.3538C147.088 20.1663 147.438 20.0914 147.81 20.1289C148.181 20.1476 148.542 20.3163 148.893 20.6349C149.492 21.1784 150.121 21.6002 150.781 21.9001C151.441 22.1999 152.266 22.3499 153.256 22.3499C153.566 22.3311 153.906 22.2937 154.278 22.2374C154.649 22.1625 154.969 22.0125 155.237 21.7876C155.525 21.544 155.67 21.1784 155.67 20.6911C155.67 20.2788 155.515 19.9508 155.206 19.7071C154.897 19.4635 154.484 19.2573 153.968 19.0886C153.473 18.9199 152.916 18.7606 152.297 18.6107C151.657 18.442 150.997 18.2546 150.316 18.0484C149.656 17.8422 149.047 17.5798 148.49 17.2611C147.934 16.9238 147.48 16.4833 147.129 15.9398C146.778 15.3962 146.603 14.7121 146.603 13.8874C146.603 12.9502 146.891 12.1537 147.469 11.4977C148.047 10.8417 148.79 10.3356 149.697 9.97946C150.626 9.62331 151.595 9.44531 152.606 9.44531C153.246 9.44531 153.916 9.52026 154.618 9.67021C155.319 9.80141 155.99 10.0263 156.63 10.345C157.269 10.6448 157.806 11.0478 158.239 11.5539C158.465 11.835 158.6 12.1724 158.641 12.566C158.682 12.9596 158.486 13.3157 158.053 13.6344C157.744 13.8593 157.383 13.9624 156.97 13.9436C156.558 13.9062 156.217 13.775 155.949 13.5501C155.598 13.1377 155.124 12.8097 154.525 12.566C153.947 12.3224 153.277 12.2005 152.514 12.2005C152.204 12.2005 151.864 12.238 151.492 12.313C151.142 12.3692 150.832 12.5098 150.564 12.7347C150.296 12.9409 150.162 13.2783 150.162 13.7468C150.162 14.1779 150.316 14.5247 150.626 14.7871C150.935 15.0307 151.348 15.2369 151.864 15.4056C152.4 15.5556 152.968 15.7055 153.566 15.8554C154.185 16.0054 154.814 16.1834 155.454 16.3896C156.094 16.5958 156.681 16.8675 157.218 17.2049C157.754 17.5423 158.187 17.9828 158.517 18.5263C158.848 19.0511 159.013 19.7259 159.013 20.5506C159.013 21.5065 158.703 22.3218 158.084 22.9965C157.465 23.6713 156.691 24.1867 155.763 24.5429C154.835 24.8804 153.885 25.0487 152.916 25.0487C151.699 25.0487 150.482 24.8617 149.264 24.4867C148.047 24.0929 147.036 23.4089 146.231 22.4343Z" fill="#81818B"/>
</svg>
