<svg width="164" height="35" viewBox="0 0 164 35" fill="none" xmlns="http://www.w3.org/2000/svg">
<path d="M0.173889 23.1287L11.8335 18.0754L18.5445 21.8652L19.9002 34.2984L11.6301 34.2323L12.8503 25.5883L11.4267 24.7905L4.4445 30.1097L0.173889 23.1287Z" fill="#81818B"/>
<path d="M19.2906 21.3329L29.5945 28.7127L33.6616 21.5989L25.3913 18.341V16.7453L33.6616 13.4209L29.5945 6.37329L19.2906 13.7534V21.3329Z" fill="#81818B"/>
<path d="M18.5445 13.1553L19.9002 0.722168L11.6301 0.85515L12.8503 9.49844L11.4267 10.2963L4.37672 4.97734L0.173889 11.892L11.8335 16.945L18.5445 13.1553Z" fill="#81818B"/>
<path d="M61.2524 16.0202V27.6684H65.7034V12.8239H59.2217V16.0202H61.2524Z" fill="#81818B"/>
<path d="M61.1133 10.7382C61.5213 11.1535 62.1429 11.3611 62.9771 11.3611C63.8124 11.3611 64.424 11.1535 64.813 10.7382C65.2215 10.3046 65.4252 9.76281 65.4252 9.11286C65.4252 8.44459 65.2215 7.90284 64.813 7.48756C64.424 7.05417 63.8124 6.8374 62.9771 6.8374C62.1429 6.8374 61.5213 7.05417 61.1133 7.48756C60.7243 7.90284 60.5295 8.44459 60.5295 9.11286C60.5295 9.76281 60.7243 10.3046 61.1133 10.7382Z" fill="#81818B"/>
<path d="M45.7576 27.3431C47.0186 27.9028 48.5669 28.183 50.4028 28.183C52.128 28.183 53.6111 27.9207 54.8543 27.3973C56.097 26.8737 57.0519 26.1421 57.7192 25.203C58.4059 24.2459 58.7487 23.1354 58.7487 21.8712C58.7487 20.6433 58.4248 19.6049 57.7754 18.756C57.1443 17.8893 56.2639 17.2121 55.1325 16.7246C54.0012 16.2188 52.6934 15.9028 51.2097 15.7765L49.6521 15.6411C48.7249 15.5687 48.0571 15.325 47.6492 14.9095C47.2407 14.4943 47.037 14.0066 47.037 13.4469C47.037 13.0134 47.1489 12.6162 47.3704 12.255C47.5935 11.8757 47.9269 11.5778 48.3721 11.361C48.8362 11.1445 49.4016 11.036 50.0694 11.036C50.774 11.036 51.3583 11.1623 51.8219 11.4153C51.9237 11.4687 52.0209 11.5259 52.1117 11.5865L52.1337 11.6016C52.1678 11.6245 52.2015 11.6482 52.234 11.6722C52.5159 11.8818 52.7401 12.1302 52.9071 12.4175C53.1475 12.8149 53.2688 13.2572 53.2688 13.7449H57.7192C57.7192 12.4445 57.4131 11.3159 56.8015 10.3588C56.1899 9.38366 55.3089 8.63427 54.1592 8.11038C53.0273 7.56863 51.6644 7.29773 50.0694 7.29773C48.5485 7.29773 47.2318 7.55073 46.1188 8.0563C45.0063 8.54397 44.1348 9.24821 43.5043 10.1691C42.8916 11.0901 42.5856 12.1828 42.5856 13.4469C42.5856 15.1986 43.1888 16.607 44.3942 17.6727C45.5996 18.7381 47.2134 19.3521 49.2347 19.5146L50.7651 19.65C52.0072 19.7584 52.9071 20.0023 53.4636 20.3813C54.0195 20.7425 54.2978 21.2391 54.2978 21.8712C54.2978 22.1617 54.249 22.4341 54.1513 22.6886C54.0789 22.8776 53.9791 23.0566 53.8531 23.2257C53.5554 23.6047 53.1202 23.9027 52.5453 24.1197C51.9704 24.3363 51.2565 24.4445 50.4028 24.4445C49.4573 24.4445 48.6876 24.3184 48.0944 24.0651C47.5006 23.7944 47.0559 23.4423 46.7583 23.0091C46.4805 22.5754 46.3419 22.1061 46.3419 21.6003H41.9183C41.9183 22.8825 42.2427 24.0204 42.8916 25.0133C43.5411 25.9887 44.496 26.7655 45.7576 27.3431Z" fill="#81818B"/>
<path d="M75.6348 27.8577C74.095 27.8577 72.8528 27.6774 71.9068 27.3158C70.9607 26.9369 70.2656 26.3136 69.8204 25.4469C69.3941 24.5618 69.1805 23.3703 69.1805 21.8712V15.9931H66.8715V12.8239H69.1805V8.81494H73.3253V12.8239H77.7768V15.9931H73.3253V22.034C73.3253 22.7382 73.5112 23.2799 73.8818 23.6589C74.2714 24.0204 74.8184 24.2008 75.5235 24.2008H77.7768V27.8577H75.6348Z" fill="#81818B"/>
<path fill-rule="evenodd" clip-rule="evenodd" d="M83.136 27.5328C84.1372 27.9659 85.2875 28.1829 86.5853 28.1829C87.8647 28.1829 88.9966 27.9659 89.9794 27.5328C90.9622 27.0992 91.7786 26.4943 92.4275 25.718C93.0764 24.9412 93.5127 24.0562 93.7347 23.0633H89.6455C89.4602 23.5148 89.1079 23.8938 88.5887 24.2007C88.0695 24.5077 87.4011 24.6616 86.5853 24.6616C86.0797 24.6616 85.6282 24.603 85.2303 24.4866C84.9273 24.398 84.6559 24.2759 84.4155 24.1197C83.859 23.7586 83.451 23.2526 83.1912 22.6027C83.1192 22.4175 83.0578 22.2239 83.0058 22.0222C82.9528 21.8178 82.9103 21.6052 82.8783 21.3838H94.013V19.9209C94.013 18.5665 93.7164 17.3205 93.1231 16.1828C92.5293 15.0269 91.6668 14.0969 90.5359 13.3926C89.4229 12.6703 88.0506 12.3091 86.4183 12.3091C85.1757 12.3091 84.0627 12.5259 83.0799 12.9593C82.116 13.3746 81.309 13.9434 80.6601 14.6658C80.0112 15.3881 79.5104 16.2099 79.1571 17.1309C78.8237 18.0337 78.6567 18.9818 78.6567 19.975V20.5168C78.6567 21.4741 78.8237 22.413 79.1571 23.334C79.5104 24.237 80.0112 25.0584 80.6601 25.799C81.3274 26.5216 82.1522 27.0992 83.136 27.5328ZM82.9549 18.7052C82.967 18.6478 82.9801 18.5914 82.9943 18.5358C83.0331 18.3826 83.0772 18.2359 83.1282 18.0956C83.1565 18.0158 83.187 17.9379 83.2195 17.8622C83.4972 17.194 83.9057 16.6884 84.4433 16.3453C84.6444 16.2171 84.8622 16.1128 85.0959 16.0326C85.4896 15.898 85.9306 15.8306 86.4183 15.8306C87.1791 15.8306 87.8091 16.0022 88.3099 16.3453C88.8291 16.6703 89.2187 17.1488 89.4786 17.7809C89.4996 17.8319 89.5195 17.8838 89.5389 17.9364C89.5694 18.0201 89.5983 18.1061 89.6245 18.1942C89.6639 18.3253 89.698 18.461 89.7285 18.6012C89.7505 18.7045 89.7694 18.8104 89.7862 18.9187H82.9119C82.925 18.8463 82.9392 18.7752 82.9549 18.7052Z" fill="#81818B"/>
<path d="M95.8499 27.6684V12.8238H99.3832V16.5626C99.4309 16.3403 99.4855 16.127 99.5464 15.9224C99.5989 15.7501 99.6551 15.5839 99.7165 15.4243C100.106 14.4129 100.69 13.6546 101.469 13.1488C102.248 12.6251 103.203 12.3634 104.335 12.3634H104.529C105.679 12.3634 106.634 12.6251 107.395 13.1488C108.174 13.6546 108.758 14.4129 109.147 15.4243L109.178 15.5006L109.204 15.5704C109.222 15.5211 109.24 15.4725 109.258 15.4243C109.666 14.4129 110.26 13.6546 111.039 13.1488C111.818 12.6251 112.773 12.3634 113.905 12.3634H114.099C115.249 12.3634 116.213 12.6251 116.992 13.1488C117.79 13.6546 118.393 14.4129 118.8 15.4243C119.208 16.4356 119.413 17.6998 119.413 19.2166V27.6684H114.961V18.9728C114.961 18.1601 114.739 17.5011 114.294 16.9955C113.867 16.4897 113.255 16.2369 112.458 16.2369C111.66 16.2369 111.03 16.4988 110.566 17.0225C110.103 17.5281 109.871 18.2053 109.871 19.0542V27.6684H105.392V18.9728C105.392 18.1601 105.169 17.5011 104.724 16.9955C104.298 16.4897 103.694 16.2369 102.916 16.2369C102.1 16.2369 101.46 16.4988 100.996 17.0225C100.533 17.5281 100.301 18.2053 100.301 19.0542V27.6684H95.8499Z" fill="#81818B"/>
<path fill-rule="evenodd" clip-rule="evenodd" d="M131.303 24.808V27.6685H134.835V18.5666C134.835 17.1941 134.557 16.0746 134.001 15.2076C133.444 14.3227 132.629 13.6636 131.553 13.2302C130.496 12.7969 129.188 12.5801 127.63 12.5801C127.293 12.5801 126.94 12.5835 126.573 12.5908C126.356 12.5951 126.133 12.6006 125.906 12.6072C125.293 12.6252 124.7 12.6523 124.125 12.6885L123.686 12.7173C123.46 12.7325 123.249 12.7476 123.049 12.7629C122.9 12.7742 122.757 12.7856 122.623 12.7969V16.4538C123.198 16.4176 123.838 16.3814 124.543 16.3454C124.74 16.3354 124.935 16.326 125.129 16.3173C125.409 16.3046 125.685 16.2937 125.959 16.2842C126.175 16.2765 126.389 16.2697 126.601 16.2641C127.269 16.246 127.807 16.237 128.215 16.237C129.03 16.237 129.624 16.4265 129.995 16.8059C130.366 17.1851 130.551 17.754 130.551 18.5125V18.5666H127.797C126.444 18.5666 125.247 18.7382 124.208 19.0814C123.17 19.4063 122.363 19.921 121.789 20.6253C121.213 21.3117 120.926 22.1965 120.926 23.2799C120.926 24.2733 121.158 25.131 121.621 25.8537C122.085 26.5575 122.725 27.0993 123.541 27.4783C124.376 27.8577 125.34 28.0475 126.434 28.0475C127.491 28.0475 128.382 27.8577 129.105 27.4783C129.847 27.0993 130.422 26.5575 130.83 25.8537C130.902 25.7346 130.968 25.6116 131.031 25.4836C131.119 25.3029 131.198 25.1127 131.267 24.9131L131.303 24.808ZM130.551 22.1695V20.9775H127.769C126.99 20.9775 126.388 21.167 125.961 21.5463C125.553 21.9075 125.349 22.4041 125.349 23.0361C125.349 23.3337 125.4 23.6039 125.501 23.8478C125.604 24.0921 125.757 24.3091 125.961 24.4988C126.388 24.8604 126.99 25.0406 127.769 25.0406C127.917 25.0406 128.061 25.0335 128.199 25.0196C128.312 25.008 128.422 24.9914 128.529 24.9704C128.732 24.9301 128.925 24.872 129.105 24.7968C129.513 24.6165 129.847 24.3185 130.106 23.9028C130.366 23.4876 130.515 22.9095 130.551 22.1695Z" fill="#81818B"/>
<path d="M137.499 27.6685V12.8239H141.033V17.7236C141.202 16.3249 141.628 15.1971 142.312 14.3409C143.24 13.2032 144.574 12.6344 146.318 12.6344H146.903V16.3725H145.79C144.566 16.3725 143.62 16.6974 142.952 17.3476C142.284 17.9797 141.95 18.9007 141.95 20.1105V27.6685H137.499Z" fill="#81818B"/>
<path d="M152.547 20.7336H154.021L158.834 27.6685H163.841L157.739 19.1518L162.756 12.8239H158.083L152.547 19.8822V7.89392H148.096V27.6685H152.547V20.7336Z" fill="#81818B"/>
</svg>
