<svg width="164" height="31" viewBox="0 0 164 31" fill="none" xmlns="http://www.w3.org/2000/svg">
<path d="M52.8865 27.566C50.5298 27.566 48.4466 27.0911 46.6369 26.1423C44.8267 25.1715 43.4276 23.8017 42.4385 22.0333C41.4499 20.2645 40.9554 18.1831 40.9554 15.7889C40.9554 13.3946 41.4499 11.3132 42.4385 9.54456C43.4276 7.75426 44.8267 6.38464 46.6369 5.43554C48.4466 4.46492 50.5298 3.97961 52.8865 3.97961C54.4862 3.97961 55.8958 4.15218 57.1165 4.49726C58.3581 4.82082 59.4942 5.33847 60.5253 6.05027V10.7416C59.5997 9.96514 58.5371 9.40433 57.3375 9.0592C56.1589 8.69254 54.8122 8.50921 53.2971 8.50921C51.8875 8.50921 50.6138 8.81119 49.4777 9.4151C48.3626 9.99748 47.4785 10.8387 46.8265 11.9387C46.1739 13.0387 45.8479 14.3221 45.8479 15.7889C45.8479 17.2772 46.1424 18.5821 46.7314 19.7037C47.342 20.8038 48.1941 21.6558 49.2882 22.2597C50.3823 22.8637 51.6454 23.1656 53.0761 23.1656C54.3807 23.1656 55.5168 22.9284 56.4849 22.4538V18.086H52.918V14.4623H61.1248V25.3657C59.0416 26.8324 56.2959 27.566 52.8865 27.566Z" fill="#81818B"/>
<path d="M62.2331 11.5505H66.8415V13.783C67.4521 13.028 68.3042 12.4564 69.3983 12.0682C70.4924 11.6583 71.7345 11.4535 73.1232 11.4535V15.1742C71.671 15.1742 70.3874 15.4006 69.2723 15.8536C68.1777 16.3066 67.4201 16.9968 66.9996 17.9243V27.0806H62.2331V11.5505Z" fill="#81818B"/>
<path d="M82.2829 27.566C79.3786 27.566 77.0954 26.8539 75.4332 25.4302C73.7705 23.9855 72.9395 21.9685 72.9395 19.3802C72.9395 16.8134 73.676 14.7859 75.1492 13.2976C76.6433 11.8093 78.7685 11.0652 81.5253 11.0652C83.335 11.0652 84.8706 11.4103 86.1338 12.1005C87.3959 12.7907 88.354 13.7506 89.006 14.98C89.6586 16.1879 89.9846 17.5576 89.9846 19.089V21.0626H77.4849C77.8214 23.047 79.6311 24.0394 82.9139 24.0394C83.882 24.0394 84.8816 23.953 85.9127 23.7803C86.9438 23.6078 87.8384 23.3705 88.596 23.0686V26.4983C87.8594 26.8214 86.9123 27.0806 85.7547 27.2749C84.5976 27.4686 83.44 27.566 82.2829 27.566ZM85.4707 17.8919C85.4077 16.8566 85.0286 16.0585 84.3346 15.4977C83.64 14.9153 82.6824 14.6241 81.4618 14.6241C80.2627 14.6241 79.3156 14.9153 78.621 15.4977C77.9269 16.0801 77.5479 16.8781 77.4849 17.8919H85.4707Z" fill="#81818B"/>
<path d="M99.7543 27.566C96.8505 27.566 94.5673 26.8539 92.9046 25.4302C91.2425 23.9855 90.4109 21.9685 90.4109 19.3802C90.4109 16.8134 91.1475 14.7859 92.6206 13.2976C94.1148 11.8093 96.24 11.0652 98.9967 11.0652C100.806 11.0652 102.343 11.4103 103.606 12.1005C104.868 12.7907 105.825 13.7506 106.477 14.98C107.13 16.1879 107.456 17.5576 107.456 19.089V21.0626H94.9563C95.2929 23.047 97.1031 24.0394 100.386 24.0394C101.354 24.0394 102.354 23.953 103.384 23.7803C104.415 23.6078 105.31 23.3705 106.067 23.0686V26.4983C105.331 26.8214 104.384 27.0806 103.227 27.2749C102.069 27.4686 100.912 27.566 99.7543 27.566ZM102.943 17.8919C102.879 16.8566 102.501 16.0585 101.807 15.4977C101.111 14.9153 100.154 14.6241 98.9337 14.6241C97.7341 14.6241 96.7875 14.9153 96.093 15.4977C95.3984 16.0801 95.0199 16.8781 94.9563 17.8919H102.943Z" fill="#81818B"/>
<path d="M108.515 11.5505H113.122V13.4594C113.818 12.6613 114.638 12.0682 115.585 11.6799C116.553 11.2701 117.563 11.0652 118.615 11.0652C120.678 11.0652 122.214 11.6368 123.223 12.7799C124.255 13.9016 124.771 15.4222 124.771 17.3419V27.0806H120.004V17.8919C120.004 15.8859 119.099 14.883 117.289 14.883C116.49 14.883 115.743 15.0879 115.048 15.4977C114.354 15.8859 113.765 16.4683 113.28 17.2448V27.0806H108.515V11.5505Z" fill="#81818B"/>
<path d="M128.975 9.15625C128.239 9.15625 127.619 8.90824 127.114 8.41212C126.608 7.91605 126.356 7.29051 126.356 6.53556C126.356 5.80224 126.608 5.18752 127.114 4.69139C127.619 4.17374 128.239 3.91492 128.975 3.91492C129.712 3.91492 130.333 4.17374 130.838 4.69139C131.343 5.18752 131.596 5.80224 131.596 6.53556C131.596 7.29051 131.343 7.91605 130.838 8.41212C130.333 8.90824 129.712 9.15625 128.975 9.15625ZM126.577 11.5505H131.375V27.0806H126.577V11.5505Z" fill="#81818B"/>
<path d="M139.504 27.566C138.368 27.566 137.147 27.4362 135.842 27.1775C134.559 26.9403 133.549 26.5952 132.812 26.1423V22.3244C133.654 22.8421 134.664 23.2627 135.842 23.5862C137.021 23.9096 138.115 24.0714 139.125 24.0714C139.988 24.0714 140.619 23.996 141.019 23.8451C141.418 23.6941 141.618 23.4137 141.618 23.0039C141.618 22.6803 141.503 22.4215 141.271 22.2274C141.04 22.0117 140.682 21.8283 140.198 21.6774C139.735 21.5048 138.956 21.2567 137.862 20.9332C136.579 20.5449 135.568 20.1567 134.832 19.7685C134.117 19.3586 133.57 18.8518 133.191 18.2478C132.833 17.6439 132.654 16.8673 132.654 15.9183C132.654 14.3005 133.274 13.0927 134.517 12.2946C135.779 11.475 137.483 11.0652 139.63 11.0652C140.682 11.0652 141.766 11.1838 142.881 11.4211C144.017 11.6368 144.891 11.928 145.501 12.2946V16.0154C144.891 15.6055 144.091 15.2712 143.102 15.0124C142.134 14.7536 141.187 14.6241 140.261 14.6241C139.398 14.6241 138.725 14.7104 138.241 14.883C137.778 15.0555 137.546 15.3791 137.546 15.8536C137.546 16.2634 137.767 16.5762 138.209 16.7919C138.672 17.0076 139.525 17.2772 140.766 17.6008L141.398 17.7625C142.723 18.1292 143.754 18.539 144.491 18.992C145.227 19.4233 145.743 19.9518 146.038 20.5773C146.353 21.1813 146.511 21.947 146.511 22.8744C146.511 24.2981 145.911 25.4411 144.712 26.3041C143.513 27.145 141.776 27.566 139.504 27.566Z" fill="#81818B"/>
<path d="M147.613 3.17078H152.379V13.33C153.095 12.575 153.905 12.0142 154.809 11.6476C155.715 11.2593 156.683 11.0652 157.714 11.0652C159.776 11.0652 161.312 11.6368 162.322 12.78C163.353 13.9016 163.869 15.4222 163.869 17.3419V27.0806H159.103V17.8919C159.103 15.886 158.198 14.883 156.388 14.883C155.588 14.883 154.842 15.0879 154.147 15.4977C153.452 15.886 152.863 16.4683 152.379 17.2448V27.0806H147.613V3.17078Z" fill="#81818B"/>
<path fill-rule="evenodd" clip-rule="evenodd" d="M24.6772 7.74858C24.6772 11.8583 21.4271 15.19 17.4175 15.19C13.4079 15.19 10.1575 11.8583 10.1575 7.74858C10.1575 3.63878 13.4079 0.307129 17.4175 0.307129C21.4271 0.307129 24.6772 3.63878 24.6772 7.74858ZM0.53023 14.6492C8.43977 14.1027 15.3332 20.1727 15.9753 28.2971C16.0418 29.1389 16.0386 29.97 15.9707 30.7848C8.06114 31.3313 1.16774 25.2612 0.52561 17.1368C0.459145 16.2949 0.462295 15.4637 0.53023 14.6492ZM21.0883 30.5002C29.0146 29.8419 34.9363 22.7764 34.4034 14.6691C33.6085 14.5995 32.7979 14.5962 31.9763 14.6644C24.05 15.3225 18.1282 22.3883 18.6614 30.4955C19.4561 30.5653 20.2669 30.5685 21.0883 30.5002Z" fill="#81818B"/>
</svg>
