<svg width="158" height="35" viewBox="0 0 158 35" fill="none" xmlns="http://www.w3.org/2000/svg">
<path fill-rule="evenodd" clip-rule="evenodd" d="M6.59531 8.97047C9.33565 5.46825 13.7239 3.1993 18.6698 3.1993C23.6448 3.1993 28.0553 5.49502 30.7924 9.03237C30.6759 9.14619 30.5698 9.26416 30.4737 9.38197C29.9724 9.99884 29.5951 10.7934 29.293 11.6003C28.6844 13.2231 28.2202 15.3429 27.7904 17.3278L27.7522 17.5063C27.3234 19.4876 26.9248 21.3303 26.4428 22.6982C26.2263 23.3127 26.021 23.7472 25.8389 24.0254C25.6489 23.7449 25.4334 23.3052 25.2052 22.6818C24.6898 21.2747 24.2562 19.3607 23.7967 17.317L23.7818 17.2501V17.25C23.3401 15.2871 22.8717 13.2043 22.2876 11.61C21.9941 10.8091 21.6341 10.0225 21.1632 9.41131C20.701 8.81155 19.9317 8.13467 18.8065 8.13467C17.6884 8.13467 16.9156 8.8042 16.4467 9.39724C15.9667 10.0045 15.5924 10.7878 15.2842 11.5891C14.6633 13.2026 14.1557 15.3133 13.6833 17.301L13.6346 17.5063C13.1668 19.4753 12.7295 21.3162 12.2331 22.6867C12.0437 23.21 11.8648 23.6083 11.703 23.8927C11.5448 23.6096 11.3704 23.214 11.1861 22.6951C10.7099 21.3538 10.2928 19.5644 9.84475 17.6426L9.76631 17.3063C9.30211 15.3174 8.79847 13.2029 8.16879 11.5843C7.85594 10.7801 7.47327 9.9928 6.97809 9.38275C6.86595 9.24468 6.73853 9.1045 6.59531 8.97047ZM4.93678 11.6596C5.0673 11.9045 5.20537 12.208 5.34812 12.575C5.89318 13.976 6.35491 15.8877 6.83041 17.9249L6.92296 18.3219C7.35588 20.1807 7.80622 22.1144 8.33668 23.6083C8.61882 24.4028 8.95954 25.181 9.39771 25.7858C9.81209 26.3578 10.5555 27.0967 11.6986 27.0967C12.8383 27.0967 13.5835 26.3614 14.0007 25.792C14.4426 25.1886 14.7889 24.4112 15.0767 23.6162C15.6285 22.0927 16.0983 20.1138 16.5479 18.2199V18.2198L16.6167 17.9303C17.1011 15.8918 17.5675 13.9763 18.1086 12.5702C18.3592 11.9187 18.5939 11.4649 18.7981 11.1833C18.9918 11.4625 19.213 11.9091 19.4476 12.5493C19.9631 13.9566 20.3962 15.8705 20.8559 17.9142L20.871 17.9811C21.3125 19.9441 21.7809 22.027 22.365 23.6211C22.6585 24.4223 23.0185 25.2089 23.4894 25.8199C23.9517 26.4198 24.7209 27.0967 25.8459 27.0967C26.9769 27.0967 27.7434 26.4136 28.2001 25.8084C28.6639 25.1943 29.0127 24.4051 29.2944 23.6052C29.8359 22.0687 30.2664 20.0752 30.6769 18.1788V18.1787L30.7357 17.9034C31.1778 15.8622 31.6019 13.9558 32.1259 12.559C32.2393 12.2551 32.3511 11.996 32.4577 11.7784C33.2604 13.5265 33.7056 15.4567 33.7056 17.4857C33.7056 25.3757 26.9741 31.7721 18.6698 31.7721C10.3656 31.7721 3.63379 25.3757 3.63379 17.4857C3.63379 15.4106 4.09941 13.4388 4.93678 11.6596ZM18.6698 0.342041C8.70481 0.342041 0.626587 8.01749 0.626587 17.4857C0.626587 26.9538 8.70481 34.6292 18.6698 34.6292C28.635 34.6292 36.7128 26.9538 36.7128 17.4857C36.7128 8.01749 28.635 0.342041 18.6698 0.342041ZM19.0136 10.9442C19.0136 10.9445 19.01 10.9472 19.003 10.9511C19.01 10.9458 19.0136 10.9438 19.0136 10.9442ZM18.5979 10.9461C18.5909 10.9421 18.5875 10.9393 18.5875 10.9389C18.5875 10.9385 18.591 10.9406 18.5979 10.9461ZM25.6173 24.2966C25.6173 24.2966 25.6205 24.2935 25.627 24.2896C25.6205 24.2949 25.6173 24.2971 25.6173 24.2966ZM26.0545 24.2851C26.0615 24.2891 26.0652 24.2918 26.0652 24.2922C26.0652 24.2926 26.0615 24.2904 26.0545 24.2851ZM11.3904 24.3223C11.3903 24.3218 11.3947 24.3178 11.4034 24.3121C11.3948 24.3196 11.3904 24.3227 11.3904 24.3223ZM11.9994 24.3148C12.008 24.3205 12.0123 24.3245 12.0123 24.3249C12.0123 24.3254 12.0079 24.3227 11.9994 24.3148Z" fill="#81818B"/>
<path d="M46.6758 27.6351L42.3004 13.4144H46.1329L48.728 23.6498L51.7452 13.4144H56.0302L59.0479 23.6498L61.6729 13.4144H65.5054L61.0996 27.6351H57.0865L53.8877 16.9982L50.6894 27.6351H46.6758Z" fill="#81818B"/>
<path d="M71.1287 27.9793C69.8414 27.9793 68.7851 27.7877 67.9604 27.4055C67.1361 27.0042 66.5224 26.4786 66.1197 25.8287C65.7176 25.1788 65.5165 24.4621 65.5165 23.6785C65.5165 22.3597 66.0593 21.2893 67.1456 20.4674C68.2318 19.6455 69.8619 19.2346 72.0344 19.2346H75.8364V18.8905C75.8364 17.9157 75.5445 17.199 74.9612 16.7402C74.378 16.2815 73.6535 16.0522 72.7888 16.0522C72.0039 16.0522 71.3198 16.2337 70.7366 16.5969C70.1533 16.9409 69.791 17.457 69.6503 18.1451H65.8782C65.979 17.113 66.3413 16.2146 66.9644 15.45C67.6086 14.6855 68.4334 14.1025 69.4388 13.7012C70.4452 13.2807 71.5713 13.0704 72.8187 13.0704C74.9513 13.0704 76.6307 13.5769 77.8582 14.5899C79.0851 15.603 79.6988 17.0366 79.6988 18.8905V27.6351H76.4092L76.0475 25.3416C75.6049 26.1061 74.9812 26.7366 74.1769 27.2338C73.392 27.7306 72.3761 27.9793 71.1287 27.9793ZM72.0039 25.112C73.1106 25.112 73.9653 24.7678 74.5685 24.0798C75.1922 23.3919 75.5849 22.5411 75.7461 21.5282H72.4565C71.4306 21.5282 70.6967 21.7098 70.2536 22.0729C69.8115 22.4168 69.59 22.8472 69.59 23.3631C69.59 23.9175 69.8115 24.3475 70.2536 24.6532C70.6967 24.9589 71.2794 25.112 72.0039 25.112Z" fill="#81818B"/>
<path d="M85.7788 27.6351L80.2874 13.4144H84.3304L88.1324 24.1661L91.9345 13.4144H95.978L90.4561 27.6351H85.7788Z" fill="#81818B"/>
<path d="M103.742 27.9793C102.234 27.9793 100.896 27.6732 99.7291 27.0617C98.5625 26.4499 97.6474 25.5898 96.9833 24.4811C96.3192 23.3728 95.9879 22.092 95.9879 20.6394C95.9879 19.1677 96.3097 17.8584 96.9529 16.7116C97.617 15.5648 98.5221 14.676 99.6692 14.0452C100.835 13.3954 102.203 13.0704 103.773 13.0704C105.241 13.0704 106.539 13.3762 107.665 13.9879C108.792 14.5995 109.667 15.4405 110.29 16.5109C110.934 17.5621 111.256 18.7376 111.256 20.0373C111.256 20.2476 111.246 20.4674 111.226 20.6967C111.226 20.9262 111.216 21.165 111.196 21.4135H99.8199C99.9002 22.5221 100.303 23.3919 101.027 24.0228C101.771 24.6532 102.666 24.9687 103.713 24.9687C104.497 24.9687 105.151 24.8063 105.674 24.4811C106.216 24.1373 106.619 23.6976 106.881 23.1622H110.803C110.522 24.0608 110.049 24.8828 109.385 25.6283C108.741 26.3543 107.937 26.9277 106.971 27.3484C106.026 27.7687 104.949 27.9793 103.742 27.9793ZM103.773 16.0522C102.828 16.0522 101.992 16.3102 101.268 16.8262C100.544 17.3232 100.081 18.0878 99.8797 19.1199H107.333C107.273 18.1833 106.911 17.4379 106.247 16.8836C105.583 16.3293 104.759 16.0522 103.773 16.0522Z" fill="#81818B"/>
<path d="M113.298 27.635V6.99219H117.16V27.635H113.298Z" fill="#81818B"/>
<path d="M127.171 27.9793C125.663 27.9793 124.325 27.6732 123.158 27.0617C121.992 26.4499 121.077 25.5898 120.413 24.4811C119.748 23.3728 119.417 22.092 119.417 20.6394C119.417 19.1677 119.739 17.8584 120.382 16.7116C121.046 15.5648 121.951 14.676 123.098 14.0452C124.265 13.3954 125.633 13.0704 127.202 13.0704C128.67 13.0704 129.968 13.3762 131.095 13.9879C132.221 14.5995 133.097 15.4405 133.72 16.5109C134.363 17.5621 134.686 18.7376 134.686 20.0373C134.686 20.2476 134.675 20.4674 134.655 20.6967C134.655 20.9262 134.645 21.165 134.625 21.4135H123.249C123.329 22.5221 123.732 23.3919 124.456 24.0228C125.2 24.6532 126.096 24.9687 127.142 24.9687C127.926 24.9687 128.58 24.8063 129.103 24.4811C129.646 24.1373 130.048 23.6976 130.31 23.1622H134.233C133.951 24.0608 133.478 24.8828 132.815 25.6283C132.17 26.3543 131.366 26.9277 130.4 27.3484C129.455 27.7687 128.379 27.9793 127.171 27.9793ZM127.202 16.0522C126.257 16.0522 125.422 16.3102 124.697 16.8262C123.973 17.3232 123.511 18.0878 123.309 19.1199H130.762C130.702 18.1833 130.34 17.4379 129.676 16.8836C129.012 16.3293 128.188 16.0522 127.202 16.0522Z" fill="#81818B"/>
<path d="M142.913 27.9793C141.585 27.9793 140.418 27.7784 139.413 27.3772C138.406 26.9564 137.602 26.3831 136.998 25.6566C136.395 24.9306 136.033 24.0896 135.912 23.134H139.804C139.925 23.6878 140.248 24.1661 140.77 24.5674C141.313 24.9496 142.007 25.1408 142.852 25.1408C143.697 25.1408 144.311 24.9784 144.693 24.6532C145.095 24.3285 145.296 23.9555 145.296 23.5352C145.296 22.9234 145.015 22.5124 144.452 22.3022C143.888 22.0729 143.104 21.8532 142.098 21.6429C141.455 21.5091 140.801 21.3466 140.137 21.1555C139.473 20.9644 138.859 20.7254 138.296 20.4388C137.753 20.1329 137.31 19.7506 136.968 19.2919C136.626 18.814 136.455 18.2311 136.455 17.543C136.455 16.2815 136.978 15.2207 138.025 14.3606C139.09 13.5005 140.579 13.0704 142.49 13.0704C144.261 13.0704 145.669 13.4622 146.715 14.2459C147.781 15.0296 148.414 16.1095 148.616 17.4857H144.965C144.743 16.4344 143.908 15.9088 142.46 15.9088C141.736 15.9088 141.173 16.0426 140.77 16.3102C140.388 16.5778 140.197 16.9122 140.197 17.3136C140.197 17.7342 140.489 18.0686 141.072 18.3171C141.656 18.5656 142.43 18.7949 143.395 19.0052C144.441 19.2346 145.397 19.4926 146.262 19.7793C147.147 20.0469 147.851 20.4579 148.375 21.0122C148.897 21.5473 149.159 22.3212 149.159 23.3343C149.179 24.2139 148.937 25.0067 148.435 25.7141C147.932 26.4211 147.208 26.9754 146.262 27.3772C145.317 27.7784 144.2 27.9793 142.913 27.9793Z" fill="#81818B"/>
<path d="M157.559 27.9793C156.232 27.9793 155.065 27.7784 154.059 27.3772C153.053 26.9564 152.249 26.3831 151.645 25.6566C151.042 24.9306 150.679 24.0896 150.559 23.134H154.451C154.572 23.6878 154.894 24.1661 155.417 24.5674C155.96 24.9496 156.654 25.1408 157.499 25.1408C158.344 25.1408 158.958 24.9784 159.34 24.6532C159.742 24.3285 159.943 23.9555 159.943 23.5352C159.943 22.9234 159.662 22.5124 159.098 22.3022C158.535 22.0729 157.751 21.8532 156.745 21.6429C156.101 21.5091 155.447 21.3466 154.783 21.1555C154.12 20.9644 153.506 20.7254 152.943 20.4388C152.4 20.1329 151.957 19.7506 151.615 19.2919C151.273 18.814 151.102 18.2311 151.102 17.543C151.102 16.2815 151.625 15.2207 152.671 14.3606C153.737 13.5005 155.226 13.0704 157.137 13.0704C158.907 13.0704 160.315 13.4622 161.361 14.2459C162.427 15.0296 163.061 16.1095 163.263 17.4857H159.611C159.39 16.4344 158.555 15.9088 157.107 15.9088C156.382 15.9088 155.819 16.0426 155.417 16.3102C155.035 16.5778 154.844 16.9122 154.844 17.3136C154.844 17.7342 155.135 18.0686 155.719 18.3171C156.302 18.5656 157.076 18.7949 158.042 19.0052C159.088 19.2346 160.044 19.4926 160.909 19.7793C161.794 20.0469 162.498 20.4579 163.021 21.0122C163.544 21.5473 163.806 22.3212 163.806 23.3343C163.826 24.2139 163.584 25.0067 163.081 25.7141C162.578 26.4211 161.854 26.9754 160.909 27.3772C159.963 27.7784 158.847 27.9793 157.559 27.9793Z" fill="#81818B"/>
</svg>
